<?xml version="1.0" encoding="iso-8859-1"?>
<!-- Generator: Adobe Illustrator 19.0.0, SVG Export Plug-In . SVG Version: 6.00 Build 0)  -->
<svg version="1.1" id="Capa_1" xmlns="http://www.w3.org/2000/svg" xmlns:xlink="http://www.w3.org/1999/xlink" x="0px" y="0px"
	 viewBox="0 0 409.6 409.6" style="enable-background:new 0 0 409.6 409.6;" xml:space="preserve">
<g>
	<g>
		<path d="M404.48,399.36h-6.38V138.895c0-2.826-2.289-5.12-5.12-5.12h-11.418V10.24h2.488c2.831,0,5.12-2.294,5.12-5.12
			S386.883,0,384.051,0H264.131c-2.831,0-5.12,2.294-5.12,5.12s2.289,5.12,5.12,5.12h2.493v123.535h-11.428
			c-2.831,0-5.12,2.294-5.12,5.12V399.36H233.17V230.175c0-2.826-2.289-5.12-5.12-5.12h-11.971v-54.159h2.744
			c2.831,0,5.12-2.294,5.12-5.12s-2.289-5.12-5.12-5.12h-8.904v-22.804c0-2.826-2.289-5.12-5.12-5.12H176
			c-2.831,0-5.12,2.294-5.12,5.12v22.804h-10.281V39.787h4.152c2.831,0,5.12-2.294,5.12-5.12c0-2.826-2.289-5.12-5.12-5.12h-52.244
			V5.12c0-2.826-2.289-5.12-5.12-5.12H42.86c-2.831,0-5.12,2.294-5.12,5.12v24.427H18.775c-2.831,0-5.12,2.294-5.12,5.12
			c0,2.826,2.289,5.12,5.12,5.12h4.147V399.36H5.12c-2.831,0-5.12,2.294-5.12,5.12s2.289,5.12,5.12,5.12h399.36
			c2.831,0,5.12-2.294,5.12-5.12S407.311,399.36,404.48,399.36z M181.12,142.971h18.56v17.684h-18.56V142.971z M205.839,170.895
			v54.159h-97.91v-54.159H205.839z M47.98,10.24h54.287v19.307H47.98V10.24z M80.594,230.175V399.36H33.157V39.787h0.005h117.202
			v120.868H94.945c-2.831,0-5.12,2.294-5.12,5.12s2.289,5.12,5.12,5.12h2.744v54.159H85.714
			C82.883,225.055,80.594,227.348,80.594,230.175z M116.147,350.121c-0.604-1.198-0.917-2.463-0.917-3.753
			c0-2.693,1.275-4.649,2.34-5.806c1.434-1.567,1.761-3.85,0.809-5.755c-0.44-0.875-0.66-1.802-0.65-3.067
			c0.195-3.671,3.62-6.543,7.798-6.543c4.306,0,7.808,3.082,7.808,6.871c0,0.932-0.225,1.853-0.666,2.739
			c-0.952,1.905-0.625,4.193,0.814,5.755c1.065,1.162,2.34,3.108,2.34,5.806c0,1.29-0.312,2.555-0.917,3.753
			c-0.957,1.884-0.655,4.157,0.748,5.734c1.889,2.109,2.888,4.644,2.888,7.342c0,6.456-5.847,11.704-13.025,11.704
			c-7.178,0-13.025-5.248-13.025-11.704c0-2.263,0.722-4.459,2.079-6.339c0.256-0.348,0.527-0.681,0.809-1.004
			C116.797,354.278,117.1,352.005,116.147,350.121z M194.488,399.36h-19.277v-39.818h19.277V399.36z M222.93,399.36h-18.202v-44.938
			c0-2.826-2.289-5.12-5.12-5.12h-29.517c-2.831,0-5.12,2.294-5.12,5.12v44.938H130.54l0.031-14.771
			c10.404-2.186,18.217-10.931,18.217-21.391c0-4.101-1.224-8.11-3.497-11.566c0.512-1.705,0.768-3.466,0.768-5.258
			c0-3.599-1.06-7.112-3.036-10.143c0.364-1.357,0.543-2.744,0.543-4.157c0-9.436-8.095-17.111-18.048-17.111
			c-9.62,0-17.541,7.132-18.028,16.251l-0.02,0.86c0,1.413,0.179,2.801,0.538,4.157c-1.971,3.036-3.031,6.543-3.031,10.143
			c0,1.792,0.256,3.548,0.768,5.253c-2.289,3.471-3.497,7.455-3.497,11.571c0,10.409,7.741,19.113,18.074,21.35l-0.015,14.812
			H90.834V235.295H222.93V399.36z M276.864,10.24h94.454v123.535h-94.454V10.24z M336.082,399.36H312.1v-39.818h23.982V399.36z
			 M387.86,399.36h-41.539v-44.938c0-2.826-2.289-5.12-5.12-5.12H306.98c-2.831,0-5.12,2.294-5.12,5.12v44.938h-41.544V144.015
			H387.86V399.36z"/>
	</g>
</g>
<g>
	<g>
		<path d="M362.455,281.129c-2.831,0-5.12,2.294-5.12,5.12v22.574c0,2.826,2.289,5.12,5.12,5.12s5.12-2.294,5.12-5.12v-22.574
			C367.575,283.423,365.286,281.129,362.455,281.129z"/>
	</g>
</g>
<g>
	<g>
		<path d="M362.455,229.77c-2.831,0-5.12,2.294-5.12,5.12v22.569c0,2.826,2.289,5.12,5.12,5.12s5.12-2.294,5.12-5.12V234.89
			C367.575,232.064,365.286,229.77,362.455,229.77z"/>
	</g>
</g>
<g>
	<g>
		<path d="M362.455,178.401c-2.831,0-5.12,2.294-5.12,5.12v22.574c0,2.826,2.289,5.12,5.12,5.12s5.12-2.294,5.12-5.12v-22.574
			C367.575,180.695,365.286,178.401,362.455,178.401z"/>
	</g>
</g>
<g>
	<g>
		<path d="M336.881,281.129c-2.831,0-5.12,2.294-5.12,5.12v22.574c0,2.826,2.289,5.12,5.12,5.12s5.12-2.294,5.12-5.12v-22.574
			C342.001,283.423,339.712,281.129,336.881,281.129z"/>
	</g>
</g>
<g>
	<g>
		<path d="M336.881,229.77c-2.831,0-5.12,2.294-5.12,5.12v22.569c0,2.826,2.289,5.12,5.12,5.12s5.12-2.294,5.12-5.12V234.89
			C342.001,232.064,339.712,229.77,336.881,229.77z"/>
	</g>
</g>
<g>
	<g>
		<path d="M336.881,178.401c-2.831,0-5.12,2.294-5.12,5.12v22.574c0,2.826,2.289,5.12,5.12,5.12s5.12-2.294,5.12-5.12v-22.574
			C342.001,180.695,339.712,178.401,336.881,178.401z"/>
	</g>
</g>
<g>
	<g>
		<path d="M299.29,43.633c-2.831,0-5.12,2.294-5.12,5.12v17.679c0,2.826,2.289,5.12,5.12,5.12s5.12-2.294,5.12-5.12V48.753
			C304.41,45.926,302.121,43.633,299.29,43.633z"/>
	</g>
</g>
<g>
	<g>
		<path d="M324.086,43.633c-2.831,0-5.12,2.294-5.12,5.12v17.679c0,2.826,2.289,5.12,5.12,5.12c2.831,0,5.12-2.294,5.12-5.12V48.753
			C329.206,45.926,326.917,43.633,324.086,43.633z"/>
	</g>
</g>
<g>
	<g>
		<path d="M348.887,43.633c-2.831,0-5.12,2.294-5.12,5.12v17.679c0,2.826,2.289,5.12,5.12,5.12s5.12-2.294,5.12-5.12V48.753
			C354.007,45.926,351.713,43.633,348.887,43.633z"/>
	</g>
</g>
<g>
	<g>
		<path d="M299.29,87.163c-2.831,0-5.12,2.294-5.12,5.12v17.679c0,2.826,2.289,5.12,5.12,5.12s5.12-2.294,5.12-5.12V92.283
			C304.41,89.457,302.121,87.163,299.29,87.163z"/>
	</g>
</g>
<g>
	<g>
		<path d="M324.086,87.163c-2.831,0-5.12,2.294-5.12,5.12v17.679c0,2.826,2.289,5.12,5.12,5.12c2.831,0,5.12-2.294,5.12-5.12V92.283
			C329.206,89.457,326.917,87.163,324.086,87.163z"/>
	</g>
</g>
<g>
	<g>
		<path d="M348.887,87.163c-2.831,0-5.12,2.294-5.12,5.12v17.679c0,2.826,2.289,5.12,5.12,5.12s5.12-2.294,5.12-5.12V92.283
			C354.007,89.457,351.713,87.163,348.887,87.163z"/>
	</g>
</g>
<g>
	<g>
		<path d="M311.301,281.129c-2.831,0-5.12,2.294-5.12,5.12v22.574c0,2.826,2.289,5.12,5.12,5.12c2.831,0,5.12-2.294,5.12-5.12
			v-22.574C316.421,283.423,314.133,281.129,311.301,281.129z"/>
	</g>
</g>
<g>
	<g>
		<path d="M311.301,229.77c-2.831,0-5.12,2.294-5.12,5.12v22.569c0,2.826,2.289,5.12,5.12,5.12c2.831,0,5.12-2.294,5.12-5.12V234.89
			C316.421,232.064,314.133,229.77,311.301,229.77z"/>
	</g>
</g>
<g>
	<g>
		<path d="M311.301,178.401c-2.831,0-5.12,2.294-5.12,5.12v22.574c0,2.826,2.289,5.12,5.12,5.12c2.831,0,5.12-2.294,5.12-5.12
			v-22.574C316.421,180.695,314.133,178.401,311.301,178.401z"/>
	</g>
</g>
<g>
	<g>
		<path d="M285.727,281.129c-2.831,0-5.12,2.294-5.12,5.12v22.574c0,2.826,2.289,5.12,5.12,5.12s5.12-2.294,5.12-5.12v-22.574
			C290.847,283.423,288.553,281.129,285.727,281.129z"/>
	</g>
</g>
<g>
	<g>
		<path d="M285.727,229.765c-2.831,0-5.12,2.294-5.12,5.12v22.569c0,2.826,2.289,5.12,5.12,5.12s5.12-2.294,5.12-5.12v-22.569
			C290.847,232.059,288.553,229.765,285.727,229.765z"/>
	</g>
</g>
<g>
	<g>
		<path d="M285.727,178.401c-2.831,0-5.12,2.294-5.12,5.12v22.574c0,2.826,2.289,5.12,5.12,5.12s5.12-2.294,5.12-5.12v-22.574
			C290.847,180.695,288.553,178.401,285.727,178.401z"/>
	</g>
</g>
<g>
	<g>
		<path d="M196.516,300.733c-2.831,0-5.12,2.294-5.12,5.12v18.765c0,2.831,2.289,5.12,5.12,5.12s5.12-2.294,5.12-5.12v-18.765
			C201.636,303.027,199.347,300.733,196.516,300.733z"/>
	</g>
</g>
<g>
	<g>
		<path d="M196.516,258.027c-2.831,0-5.12,2.294-5.12,5.12v18.77c0,2.826,2.289,5.12,5.12,5.12s5.12-2.294,5.12-5.12v-18.77
			C201.636,260.321,199.347,258.027,196.516,258.027z"/>
	</g>
</g>
<g>
	<g>
		<path d="M170.097,300.733c-2.831,0-5.12,2.294-5.12,5.12v18.765c0,2.831,2.289,5.12,5.12,5.12s5.12-2.294,5.12-5.12v-18.765
			C175.217,303.027,172.928,300.733,170.097,300.733z"/>
	</g>
</g>
<g>
	<g>
		<path d="M170.097,258.027c-2.831,0-5.12,2.294-5.12,5.12v18.77c0,2.826,2.289,5.12,5.12,5.12s5.12-2.294,5.12-5.12v-18.77
			C175.217,260.321,172.928,258.027,170.097,258.027z"/>
	</g>
</g>
<g>
	<g>
		<path d="M131.267,186.296c-2.831,0-5.12,2.294-5.12,5.12v14.7c0,2.826,2.289,5.12,5.12,5.12s5.12-2.294,5.12-5.12v-14.7
			C136.387,188.59,134.098,186.296,131.267,186.296z"/>
	</g>
</g>
<g>
	<g>
		<path d="M156.882,186.296c-2.831,0-5.12,2.294-5.12,5.12v14.7c0,2.826,2.289,5.12,5.12,5.12s5.12-2.294,5.12-5.12v-14.7
			C162.002,188.59,159.713,186.296,156.882,186.296z"/>
	</g>
</g>
<g>
	<g>
		<path d="M182.502,186.296c-2.831,0-5.12,2.294-5.12,5.12v14.7c0,2.826,2.289,5.12,5.12,5.12s5.12-2.294,5.12-5.12v-14.7
			C187.622,188.59,185.334,186.296,182.502,186.296z"/>
	</g>
</g>
<g>
	<g>
		<path d="M143.677,258.027c-2.831,0-5.12,2.294-5.12,5.12v18.77c0,2.826,2.289,5.12,5.12,5.12s5.12-2.294,5.12-5.12v-18.77
			C148.797,260.321,146.509,258.027,143.677,258.027z"/>
	</g>
</g>
<g>
	<g>
		<path d="M117.253,258.027c-2.831,0-5.12,2.294-5.12,5.12v18.77c0,2.826,2.294,5.12,5.12,5.12c2.831,0,5.12-2.294,5.12-5.12v-18.77
			C122.373,260.321,120.084,258.027,117.253,258.027z"/>
	</g>
</g>
<g>
	<g>
		<path d="M57.615,65.434c-2.831,0-5.12,2.294-5.12,5.12v14.694c0,2.826,2.289,5.12,5.12,5.12s5.12-2.294,5.12-5.12V70.554
			C62.735,67.727,60.447,65.434,57.615,65.434z"/>
	</g>
</g>
<g>
	<g>
		<path d="M91.52,65.434c-2.831,0-5.12,2.294-5.12,5.12v14.694c0,2.826,2.289,5.12,5.12,5.12s5.12-2.294,5.12-5.12V70.554
			C96.64,67.727,94.351,65.434,91.52,65.434z"/>
	</g>
</g>
<g>
	<g>
		<path d="M125.42,65.434c-2.831,0-5.12,2.294-5.12,5.12v14.694c0,2.826,2.289,5.12,5.12,5.12s5.12-2.294,5.12-5.12V70.554
			C130.54,67.727,128.251,65.434,125.42,65.434z"/>
	</g>
</g>
<g>
	<g>
		<path d="M57.615,113.044c-2.831,0-5.12,2.294-5.12,5.12v14.694c0,2.826,2.289,5.12,5.12,5.12s5.12-2.294,5.12-5.12v-14.694
			C62.735,115.333,60.447,113.044,57.615,113.044z"/>
	</g>
</g>
<g>
	<g>
		<path d="M57.615,162.319c-2.831,0-5.12,2.294-5.12,5.12v14.694c0,2.826,2.289,5.12,5.12,5.12s5.12-2.294,5.12-5.12v-14.694
			C62.735,164.608,60.447,162.319,57.615,162.319z"/>
	</g>
</g>
<g>
	<g>
		<path d="M57.615,209.925c-2.831,0-5.12,2.294-5.12,5.12v14.694c0,2.826,2.289,5.12,5.12,5.12s5.12-2.294,5.12-5.12v-14.694
			C62.735,212.219,60.447,209.925,57.615,209.925z"/>
	</g>
</g>
<g>
	<g>
		<path d="M57.615,259.2c-2.831,0-5.12,2.294-5.12,5.12v14.694c0,2.826,2.289,5.12,5.12,5.12s5.12-2.294,5.12-5.12V264.32
			C62.735,261.494,60.447,259.2,57.615,259.2z"/>
	</g>
</g>
<g>
	<g>
		<path d="M57.615,306.811c-2.831,0-5.12,2.294-5.12,5.12v14.694c0,2.826,2.289,5.12,5.12,5.12s5.12-2.294,5.12-5.12v-14.694
			C62.735,309.105,60.447,306.811,57.615,306.811z"/>
	</g>
</g>
<g>
	<g>
		<path d="M91.52,113.045c-2.831,0-5.12,2.294-5.12,5.12v14.694c0,2.826,2.289,5.12,5.12,5.12s5.12-2.294,5.12-5.12v-14.694
			C96.64,115.338,94.351,113.045,91.52,113.045z"/>
	</g>
</g>
<g>
	<g>
		<path d="M125.42,113.045c-2.831,0-5.12,2.294-5.12,5.12v14.694c0,2.826,2.289,5.12,5.12,5.12s5.12-2.294,5.12-5.12v-14.694
			C130.54,115.338,128.251,113.045,125.42,113.045z"/>
	</g>
</g>
<g>
</g>
<g>
</g>
<g>
</g>
<g>
</g>
<g>
</g>
<g>
</g>
<g>
</g>
<g>
</g>
<g>
</g>
<g>
</g>
<g>
</g>
<g>
</g>
<g>
</g>
<g>
</g>
<g>
</g>
</svg>
