<svg height="512" viewBox="0 0 266.69 267.22" width="512" xmlns="http://www.w3.org/2000/svg"><g id="Layer_2" data-name="Layer 2"><g id="Layer_1-2" data-name="Layer 1"><g id="City_Break" fill="rgb(0,0,0)" data-name="City Break"><path d="m262.74 259.17h-11.59v-191.73c3.41 0 8.64.86 8.84-4.09-.25-4.83-5.47-3.93-8.84-4v-10.54h4.75c4 .1 5.56-5.77 2-7.57l-52.55-30.54a3.54 3.54 0 0 0 -4 0l-52.61 30.54c-3.51 1.8-2 7.66 2 7.57h4.8v10.57c-3.35 0-8.66-.87-8.84 4 .17 5 5.43 4.05 8.84 4.09v14.53l-43.15-10.7v-46.66a4.13 4.13 0 0 0 -4.09-4.08h-10.3v-16.56a4 4 0 0 0 -4.09-4h-64.72a4 4 0 0 0 -4 4v16.6h-10.49a4.12 4.12 0 0 0 -4.08 4.08v234.49h-6.62c-5.12 0-5.4 8.09 0 8.05h258.79c5.21.06 5.21-8.06-.05-8.05zm-229.52-251.11h56.61v12.14h-56.61zm170.08 10.81 37.57 21.76h-75.07zm-39.61 29.94h79.31v10.57h-79.31zm-145-20.08h85.58v230.44h-85.54zm93.7 230.44v-26h51.26a4 4 0 1 0 0-8.06h-51.22v-15h51.26a4.1 4.1 0 0 0 0-8.19h-51.26v-15h51.26a4 4 0 1 0 0-8.07h-51.26v-15h51.26a4.12 4.12 0 0 0 4-4.09 4 4 0 0 0 -4-4.09h-51.26v-15h51.26a4 4 0 1 0 0-8h-51.26v-15.23h51.26a4 4 0 1 0 0-8h-51.26v-29.74l73.38 18.14v161.33zm129.4 0h-48v-164.44a4.17 4.17 0 0 0 -3.06-4l-27.04-6.73v-16.56h79.31v191.73z"/><path d="m61.53 199.31a4 4 0 0 0 -4 4v8.18a4 4 0 0 0 4 4.08 4.09 4.09 0 0 0 4.08-4.08v-8.18a4.07 4.07 0 0 0 -4.08-4z"/><path d="m61.53 231.64a4 4 0 0 0 -4 4.09v8.17a4 4 0 0 0 4 4 4.08 4.08 0 0 0 4.08-4v-8.17a4.09 4.09 0 0 0 -4.08-4.09z"/><path d="m61.53 134.51a4 4 0 0 0 -4 4.09v8.05a4 4 0 0 0 4 4 4 4 0 0 0 4.08-4v-8.05a4.09 4.09 0 0 0 -4.08-4.09z"/><path d="m61.53 167a4 4 0 0 0 -4 4v8a4 4 0 0 0 4 4.08 4.08 4.08 0 0 0 4.08-4.08v-8.05a4 4 0 0 0 -4.08-3.95z"/><path d="m61.53 102.05a4.05 4.05 0 0 0 -4 4.09v8.06a4.05 4.05 0 0 0 4 4.09 4.1 4.1 0 0 0 4.08-4.09v-8.06a4.1 4.1 0 0 0 -4.08-4.09z"/><path d="m61.53 37.27a4 4 0 0 0 -4 4.09v8a4.05 4.05 0 0 0 4 4.09 4.1 4.1 0 0 0 4.08-4.09v-8a4.09 4.09 0 0 0 -4.08-4.09z"/><path d="m61.53 69.72a4 4 0 0 0 -4 4v8.18a4 4 0 0 0 4 4 4.07 4.07 0 0 0 4.08-4v-8.21a4.08 4.08 0 0 0 -4.08-3.97z"/><path d="m41.33 102.05a4.09 4.09 0 0 0 -4.09 4.09v8.06a4.09 4.09 0 0 0 4.09 4.09 4 4 0 0 0 4-4.09v-8.06a4 4 0 0 0 -4-4.09z"/><path d="m41.33 69.72a4.07 4.07 0 0 0 -4.09 4v8.18a4.07 4.07 0 0 0 4.09 4 4 4 0 0 0 4-4v-8.21a4 4 0 0 0 -4-3.97z"/><path d="m41.33 134.51a4.09 4.09 0 0 0 -4.09 4.09v8.05a4 4 0 0 0 4.09 4 3.94 3.94 0 0 0 4-4v-8.05a4 4 0 0 0 -4-4.09z"/><path d="m41.33 199.31a4.06 4.06 0 0 0 -4.09 4v8.18a4.09 4.09 0 0 0 4.09 4.08 4 4 0 0 0 4-4.08v-8.18a4 4 0 0 0 -4-4z"/><path d="m41.33 231.64a4.09 4.09 0 0 0 -4.09 4.09v8.17a4.07 4.07 0 0 0 4.09 4 4 4 0 0 0 4-4v-8.17a4 4 0 0 0 -4-4.09z"/><path d="m41.33 37.27a4.09 4.09 0 0 0 -4.09 4.09v8a4.09 4.09 0 0 0 4.09 4.09 4 4 0 0 0 4-4.09v-8a4 4 0 0 0 -4-4.09z"/><path d="m41.33 167a4 4 0 0 0 -4.09 4v8a4.08 4.08 0 0 0 4.09 4.08 4 4 0 0 0 4-4.08v-8.05a3.93 3.93 0 0 0 -4-3.95z"/><path d="m81.78 231.64a4.06 4.06 0 0 0 -4.09 4.09v8.17a4.06 4.06 0 0 0 8.11 0v-8.17a4 4 0 0 0 -4.02-4.09z"/><path d="m81.78 167a4 4 0 0 0 -4.09 4v8a4.06 4.06 0 1 0 8.11 0v-8.05a3.93 3.93 0 0 0 -4.02-3.95z"/><path d="m81.78 199.31a4 4 0 0 0 -4.09 4v8.18a4.06 4.06 0 1 0 8.11 0v-8.18a4 4 0 0 0 -4.02-4z"/><path d="m81.78 134.51a4.06 4.06 0 0 0 -4.09 4.09v8.05a4.06 4.06 0 0 0 8.11 0v-8.05a4 4 0 0 0 -4.02-4.09z"/><path d="m81.78 37.27a4.06 4.06 0 0 0 -4.09 4.09v8a4.06 4.06 0 1 0 8.11 0v-8a4 4 0 0 0 -4.02-4.09z"/><path d="m81.78 102.05a4.06 4.06 0 0 0 -4.09 4.09v8.06a4.06 4.06 0 1 0 8.11 0v-8.06a4 4 0 0 0 -4.02-4.09z"/><path d="m81.78 69.72a4 4 0 0 0 -4.09 4v8.18a4.06 4.06 0 0 0 8.11 0v-8.21a4 4 0 0 0 -4.02-3.97z"/><path d="m221.46 79.22c-3.78 3.81 2 9.49 5.71 5.77s-1.85-9.28-5.71-5.77z"/><path d="m224.28 157.35c-5.27.1-5.25 8.16 0 8.17s5.36-8.09 0-8.17z"/><path d="m224.28 117.69c-5.26.09-5.25 8.07 0 8.17 5.34-.08 5.34-8.09 0-8.17z"/><path d="m224.28 97.84c-5.28.1-5.24 8.18 0 8.19s5.36-8.1 0-8.19z"/><path d="m224.28 137.64c-5.32 0-5.22 8.05 0 8.05s5.41-8.11 0-8.05z"/><path d="m224.28 177.31c-5.2 0-5.33 8 0 8.05s5.29-8.05 0-8.05z"/><path d="m224.28 217c-5.33.05-5.2 8 0 8.05s5.41-8.05 0-8.05z"/><path d="m224.28 197.14c-5.32 0-5.22 8.05 0 8.05s5.41-8.11 0-8.05z"/><path d="m221.46 237.89c-3.79 3.83 2 9.58 5.71 5.77s-1.85-9.33-5.71-5.77z"/><path d="m205.41 86.19c7.63-.82 3.26-11.59-2.82-7-2.59 2.38-.67 7.07 2.82 7z"/><path d="m205.47 197.14c-5.41-.06-5.31 8.07 0 8.05s5.32-8.1 0-8.05z"/><path d="m205.47 117.69c-5.34.08-5.34 8.09 0 8.17 5.26-.09 5.26-8.08 0-8.17z"/><path d="m205.47 97.84c-5.37.09-5.33 8.19 0 8.19s5.28-8.09 0-8.19z"/><path d="m205.47 137.64c-5.41-.06-5.31 8.06 0 8.05s5.32-8.1 0-8.05z"/><path d="m205.47 157.35c-5.36.08-5.34 8.18 0 8.17s5.27-8.08 0-8.17z"/><path d="m205.47 217c-5.42 0-5.29 8.06 0 8.05s5.33-8.05 0-8.05z"/><path d="m205.47 177.31c-5.29 0-5.42 8 0 8.05s5.2-8.04 0-8.05z"/><path d="m202.59 237.89c-3.78 3.8 2 9.59 5.7 5.77s-1.85-9.31-5.7-5.77z"/></g></g></g></svg>